<svg width="640" height="480" xmlns="http://www.w3.org/2000/svg">
 <!-- Created with SVG-edit - http://svg-edit.googlecode.com/ -->
 <g>
  <title>Layer 1</title>
  <rect height="237" width="412" y="127.21" x="113.5" stroke-width="5" stroke-linejoin="null" stroke-linecap="null" stroke-dasharray="null" stroke="#000000" fill="#aaffd4" id="svg_11"/>
  <path d="m389.266571,213.746735c4.400238,-6.805176 14.420074,-8.011078 22.010101,-8.93277c8.46814,0.762268 14.994598,7.358582 19.960388,13.743134c5.772247,5.214264 12.822205,9.638763 15.711823,17.278015c7.301941,3.617859 15.929932,5.55481 20.400238,13.301208c6.76236,8.739075 10.658966,19.313019 14.183868,29.554474c0.559265,7.639435 3.932343,14.609009 5.080902,22.172241c1.97345,7.500916 3.547058,14.92337 5.670319,22.358215c2.358826,7.731628 5.715485,15.091736 8.064667,22.83844c4.291718,6.79184 8.197266,13.961456 10.867371,21.524261c-6.380066,-0.536377 0.588562,9.647339 1.781555,13.65976c1.746338,8.263824 -7.806976,3.533142 -9.478577,-0.283691c-5.901031,5.586212 -17.987671,6.83667 -23.334534,-0.492096c-5.629822,-7.421814 -8.744324,-16.839386 -16.524323,-22.215668c-3.054565,-2.545105 -6.020813,-13.655701 -7.117218,-3.844086c3.883698,9.766785 -11.397827,4.203125 -16.825165,5.954132c-9.727173,-1.955048 3.693237,-7.514984 7.825714,-6.85437c3.883972,-3.865875 10.347229,-10.339386 1.072815,-12.365112c-6.357727,-2.528778 -14.497009,-8.934875 -18.070587,0.602905c-4.487946,2.37204 -12.525482,13.624481 -3.622864,14.457794c3.59552,7.359406 -10.382996,2.03479 -14.285431,3.777649c-3.683533,1.161377 -12.852356,-0.873413 -4.308716,-2.735474c7.346588,-1.206055 10.854004,-10.237457 15.468964,-15.703735c-0.150879,-7.024323 -5.77243,-12.588593 -9.980438,-17.886414c-4.482208,-7.470154 -10.724915,-13.863922 -13.841644,-22.038269c-2.039337,-8.48587 -5.927856,-16.333221 -7.894409,-24.841522c-2.230438,-8.521515 -4.7789,-18.133331 0.008423,-26.304626c2.180084,-7.16507 3.092926,-13.851593 -1.488983,-19.74826c-6.327393,-5.147705 -15.330261,-3.081848 -22.622406,-6.490387c-0.883362,-5.515289 10.807434,-7.617157 15.883667,-8.849426c1.927948,-0.066284 3.404907,-1.675842 5.40448,-1.636322l0,0z" stroke-width="5" stroke-linejoin="null" stroke-linecap="null" stroke-dasharray="null" stroke="#000000" fill="#7f7f7f" id="svg_12"/>
  <path d="m25.458292,83.699013c2.446394,-1.609604 -3.1047,-2.970963 -3.928995,-4.490891c-2.426218,-2.984062 -3.182081,-6.950645 -3.858032,-10.634628c1.161737,-1.979485 0.691183,-4.024483 1.11211,-6.081665c2.05794,-3.054729 3.196415,-6.638264 5.264612,-9.681927c2.303108,0.485992 4.793493,2.354656 7.1007,3.064686c2.082769,3.744278 -1.726322,6.86219 -1.278471,10.487282c0.873596,3.379784 -1.466757,6.196404 -1.937111,9.346291c0.016386,2.979797 2.726191,5.996407 5.687584,3.947762c-0.150272,-2.173088 -4.374517,-2.846672 -2.483475,-5.902824c0.622244,-3.159805 2.661846,-5.689362 4.204048,-8.343719c-0.871334,-3.11235 0.288307,-7.057564 2.251568,-9.390789c1.993378,1.925739 3.370167,5.311749 3.675156,8.008114c0.038654,3.091019 4.154446,5.159668 4.076168,8.800018c0.307541,3.218498 1.814796,6.283394 3.90509,8.02816c1.093014,2.271729 7.875465,1.086594 4.263126,-1.61232c-2.98299,-2.69191 -6.415104,-5.546928 -6.868057,-9.83683c-1.237492,-2.546654 1.606926,-6.15519 -1.886311,-7.218849c0.216476,-3.450813 -0.69759,-7.368053 1.268959,-10.446083c2.832626,-2.420704 6.981079,-2.600147 9.690117,-5.278172c3.287334,-2.179226 5.153465,-5.749844 6.205021,-9.449787c1.593067,-1.784534 4.067142,-5.64189 6.819523,-3.636665c2.700363,1.669888 0.707367,-2.53071 2.258087,-3.457569c-1.279648,-4.617468 -6.473068,-2.400597 -9.714451,-3.552738c-2.942852,-1.97094 -5.989876,-0.834551 -8.136234,1.416721c-1.607452,0.724316 -0.737823,2.620409 0.83918,1.907171c-1.131168,3.757864 -2.690304,7.893454 -6.1189,10.118872c-3.933865,1.721302 -6.128193,-3.378448 -8.464069,-5.591965c-2.549545,-2.495375 -4.130268,-6.136158 -7.341473,-7.849283c-4.46656,-1.130869 -7.860092,2.791121 -11.23344,4.999399c-3.347828,1.67614 -7.367793,2.504482 -9.651743,5.773861c-3.790368,4.555607 -1.387507,11.4291 -5.373136,15.90905c-1.641649,2.484165 -5.255948,4.273258 -4.75929,7.687569c1.760331,3.656605 0.217584,8.020741 1.178774,11.954876c0.710347,2.843269 1.762133,6.495415 5.205419,6.917595c2.708803,1.717369 4.184159,-1.879875 1.315939,-2.921715c-3.46231,-1.538406 -3.935427,-5.868637 -4.213585,-9.194923c-0.763655,-3.291397 1.844374,-5.469017 2.921461,-8.052475c-0.90956,-2.523552 2.29775,-5.953804 4.33208,-5.442978c-1.520388,2.335701 -3.740221,5.366478 -0.141518,7.290237c-0.047241,0.118073 0.528003,-2.155994 1.454646,-2.839321c-0.138321,-1.781616 -1.945391,-3.298347 -0.028639,-5.100861c3.362803,-2.242241 2.621584,4.261856 1.923364,6.106224c-0.036944,2.832294 -3.833059,5.081738 -1.894725,7.920139c2.123492,3.500603 3.119903,7.519394 3.934733,11.48558c1.169226,3.289856 4.123116,5.696259 7.816854,4.846039l0.607327,-0.006668l0.000008,0z" transform="translate(268.5 315.21) scale(0.005) translate(-268.5 -315.21)" stroke-width="5" stroke-linejoin="null" stroke-linecap="null" stroke-dasharray="null" stroke="#000000" fill="#7f7f7f" id="svg_14"/>
  <path d="m84.000031,48.93544c-2.322449,-3.708256 -7.163002,-3.03931 -10.765694,-3.881519c-2.991417,-1.240128 -7.572884,-2.428719 -9.701298,1.118057c-2.840401,3.310581 -5.361412,6.880154 -7.604923,10.610241c-4.70496,5.155537 -10.418114,9.289314 -16.160973,13.189705c-4.837585,2.376923 -10.133583,4.230408 -14.049679,8.102905c-7.436403,4.770607 -16.49521,5.640305 -24.717434,8.437065c1.457412,0.506851 7.909772,-1.335205 3.572541,0.682007c-3.226802,1.062607 1.269974,2.050087 2.705886,1.341232c-1.133748,1.21228 -1.445619,1.31144 -0.051303,1.293335c-2.53308,1.415665 5.625109,-0.439728 1.132758,1.541306c-1.955851,0.572174 -6.765081,5.848984 -2.355248,3.471802c4.099971,-1.706291 8.470424,-2.564644 12.735448,-3.737389c-3.189931,3.279556 -7.735802,5.33062 -9.928225,9.488693c0.049827,1.073402 3.393631,-2.180878 4.807495,-2.713936c8.040115,-4.859222 16.464266,-9.362549 25.52162,-11.986359c1.236881,0.297882 1.478771,3.610397 3.889572,1.917175c0.21162,2.11055 5.506897,-3.310928 4.124016,0.917244c2.293362,-3.620262 -0.004116,3.930504 2.118668,5.073814c1.083328,1.430832 5.532219,3.406258 1.905663,3.896255c-1.602886,2.398491 2.247128,-0.961891 3.087833,1.284843c3.141743,1.141159 0.853214,2.311104 -1.420952,1.620239c-1.742916,-0.23275 -2.10252,2.057617 -0.340801,0.636406c2.103706,1.44252 5.44479,0.924179 8.127392,1.544472c2.680809,0.222267 5.930382,-2.745094 6.946419,-2.025734c-2.470963,-1.773483 -6.047985,0.391975 -8.760017,-0.976746c-0.572014,-1.840317 6.357124,0.658447 6.371132,-2.451897c3.245735,-0.302185 -2.729652,-0.721329 -3.889145,0.012314c-3.993603,0.213753 -6.042538,-3.499031 -8.854008,-5.607063c0.08514,-4.375015 3.29422,-8.133972 6.652863,-10.604561c4.38195,-2.638695 8.877735,-6.037315 10.118763,-11.303627c1.28656,-4.690117 2.002983,-9.522995 2.587906,-14.332451c0.791252,-3.103207 3.065636,-5.968918 6.554337,-5.737484c1.881424,-0.262222 3.769707,-0.480057 5.639389,-0.820347l0,0z" transform="translate(224.5 256.21) scale(0.005) translate(-224.5 -256.21)" stroke-width="5" stroke-linejoin="null" stroke-linecap="null" stroke-dasharray="null" stroke="#000000" fill="#7f7f7f" id="svg_18"/>
  <path d="m355.466797,279.576019c-3.543274,-5.652435 -10.931244,-4.633453 -16.425873,-5.92157c-4.564819,-1.889648 -11.556488,-3.705017 -14.802917,1.708344c-4.3367,5.053741 -8.184937,10.500214 -11.607147,16.191132c-7.179688,7.866272 -15.8974,14.174896 -24.660217,20.12677c-7.382874,3.625458 -15.462799,6.454407 -21.442108,12.363831c-11.349716,7.278412 -25.16951,8.607849 -37.716217,12.873047c2.222321,0.777527 12.068817,-2.034943 5.449493,1.043701c-4.92218,1.623474 1.941833,3.131104 4.133621,2.043457c-1.733109,1.851349 -2.208267,2.002411 -0.076904,1.977539c-3.869934,2.158966 8.580399,-0.670166 1.727631,2.353943c-2.988312,0.86792 -10.324753,8.923401 -3.600815,5.292511c6.259491,-2.60376 12.931015,-3.911133 19.439941,-5.698975c-4.871964,5.004303 -11.804367,8.132416 -15.152466,14.476959c0.076904,1.639862 5.180084,-3.325897 7.336151,-4.138885c12.268616,-7.415741 25.125153,-14.287567 38.948608,-18.295074c1.884277,0.455933 2.255066,5.509644 5.931183,2.927856c0.324158,3.219147 8.407684,-5.05423 6.295135,1.403748c3.499298,-5.531586 -0.007813,5.992981 3.233154,7.736847c1.653442,2.183685 8.439941,5.199463 2.905853,5.949005c-2.441681,3.661377 3.433197,-1.469208 4.715637,1.958527c4.79306,1.743866 1.299347,3.52655 -2.16983,2.471863c-2.661163,-0.351532 -3.210449,3.14209 -0.521851,0.972382c3.213501,2.199768 8.311127,1.411652 12.401062,2.35907c4.092438,0.335083 9.054108,-4.191254 10.60318,-3.092651c-3.768372,-2.70517 -9.232635,0.596161 -13.371765,-1.491211c-0.867889,-2.806915 9.707764,1.005219 9.725494,-3.743774c4.953705,-0.458466 -4.166382,-1.095673 -5.932556,0.01944c-6.094482,0.32663 -9.223145,-5.336731 -13.513306,-8.552765c0.126343,-6.679565 5.029266,-12.417999 10.148804,-16.186279c6.687836,-4.025818 13.55307,-9.207458 15.448273,-17.249359c1.956757,-7.151917 3.054199,-14.526428 3.945557,-21.868103c1.207031,-4.737823 4.674683,-9.110413 10.002686,-8.75885c2.867462,-0.398224 5.751556,-0.730591 8.602509,-1.252472l0,0z" stroke-width="5" stroke-linejoin="null" stroke-linecap="null" stroke-dasharray="null" stroke="#000000" fill="#7f7f7f" id="svg_19"/>
 </g>
</svg>